Coordinates
version=1
nRows=17
nColumns=36
inDegrees=yes

Units are S.I. units (second, meters, Newtons, ...)
If the header above contains a line with 'inDegrees', this indicates whether rotational values are in degrees (yes) or radians (no).

endheader
time	pelvis_tilt	pelvis_list	pelvis_rotation	pelvis_tx	pelvis_ty	pelvis_tz	hip_flexion_r	hip_adduction_r	hip_rotation_r	knee_angle_r	knee_angle_r_beta	ankle_angle_r	subtalar_angle_r	mtp_angle_r	hip_flexion_l	hip_adduction_l	hip_rotation_l	knee_angle_l	knee_angle_l_beta	ankle_angle_l	subtalar_angle_l	mtp_angle_l	lumbar_extension	lumbar_bending	lumbar_rotation	arm_flex_r	arm_add_r	arm_rot_r	elbow_flex_r	pro_sup_r	arm_flex_l	arm_add_l	arm_rot_l	elbow_flex_l	pro_sup_l
      7.30000000	     -5.74433173	      0.12480161	     -1.49810256	      0.73672715	      0.98118560	     -0.21280281	      4.85728510	     -5.39765719	     -6.11899016	      3.80541400	      0.06641700	      6.37935553	     -7.14714411	     -7.49999987	      1.79216907	     -6.87703597	      1.45701506	      0.52415791	      0.00914828	      5.59820006	     -0.88736550	     -7.49999987	      0.07865974	     -0.10790814	     -0.23643649	     37.79386558	     -1.22780916	     60.07499869	    129.08646866	     92.89389951	     37.02436713	      2.59781630	     63.62517531	    133.16545969	     92.86653453
      7.31666670	     -5.66791560	      0.06751826	     -1.41076776	      0.73043029	      0.97799587	     -0.20994748	      4.80114241	     -5.29100394	     -6.15246288	      3.88828758	      0.06786342	      6.54217412	     -6.94721973	     -7.49999987	      1.80547835	     -6.97100254	      1.49960282	      0.56114352	      0.00979380	      5.45972852	     -1.01411011	     -7.49999987	      0.11152697	      0.04551662	     -0.67799446	     37.75114235	     -0.83945759	     60.34567243	    128.78173795	     90.52813924	     37.19891968	      2.38254039	     63.36594623	    133.55701331	     90.30944915
      7.33333330	     -5.59108812	      0.03759569	     -1.38430331	      0.73021218	      0.98130237	     -0.21024466	      4.79238598	     -5.22442924	     -6.02563315	      4.02515652	      0.07025223	      6.56048697	     -6.93650743	     -7.49999987	      1.81759145	     -7.03180630	      1.49252904	      0.61552041	      0.01074286	      5.36133619	     -0.98934240	     -7.49999987	     -0.05784402	      0.06276294	     -0.70515076	     37.35592338	     -0.83678435	     60.50069861	    128.67901232	     90.57358231	     37.31332654	      2.13931429	     63.22860349	    133.48072404	     90.33258630
      7.35000000	     -5.32619979	     -0.01317542	     -1.38641522	      0.74156258	      0.97828898	     -0.20908446	      4.42498877	     -5.12154313	     -5.95168223	      4.03636465	      0.07044785	      6.61267177	     -6.96005435	     -7.49999987	      1.47321665	     -7.11221299	      1.38420090	      0.57559237	      0.01004598	      5.21273584	     -1.02728097	     -7.49999987	      0.04767762	      0.21901233	     -1.23725745	     36.67008731	     -0.26928654	     60.77475750	    128.31824998	     88.78127598	     36.73450865	      1.61996649	     62.19946913	    133.36336230	     88.28699430
      7.36666670	     -5.12194448	     -0.04277662	     -1.40558400	      0.74088869	      0.97509785	     -0.20952200	      4.16513413	     -5.05890540	     -5.92072861	      4.09223348	      0.07142295	      6.77286292	     -6.85893351	     -7.49999987	      1.20750623	     -7.16914157	      1.26635524	      0.58129289	      0.01014547	      5.22384698	     -0.90382360	     -7.49999987	      0.27971489	      0.33138225	     -1.43345521	     36.35406674	      0.00297020	     61.50704025	    128.90910612	     80.40817121	     36.58260512	      1.51581193	     62.27552239	    133.70534038	     79.78496853
      7.38333330	     -5.16675137	     -0.08676902	     -1.37223002	      0.73482731	      0.97495449	     -0.20633862	      4.23274961	     -4.97385478	     -5.81324475	      4.20163144	      0.07333230	      6.90988178	     -6.90911624	     -7.49999987	      1.29235178	     -7.26179689	      1.38866280	      0.62076002	      0.01083431	      5.14089995	     -1.15558228	     -7.49999987	      0.45633684	      0.50161378	     -1.83747846	     36.15778091	      0.28484591	     60.68007174	    128.66993490	     93.10574029	     36.06806382	      1.18090510	     60.77488066	    134.27671822	     91.93454706
      7.40000000	     -5.06980838	     -0.12445175	     -1.40940704	      0.73456398	      0.97495900	     -0.20636831	      4.19832309	     -4.90518949	     -5.66662932	      4.34482203	      0.07583145	      7.01292456	     -7.01294301	     -7.49999987	      1.22222933	     -7.34090506	      1.35970510	      0.67576693	      0.01179436	      5.09287483	     -1.26819126	     -7.49999987	      0.46440608	      0.58132880	     -1.72663233	     35.89021256	      0.19462876	     60.27988267	    129.00772276	     92.79487890	     36.03314553	      1.14313051	     59.95795330	    133.59099803	     91.98361650
      7.41666670	     -4.95577475	     -0.13937038	     -1.46221191	      0.73468457	      0.97528797	     -0.20648649	      4.14557100	     -4.86695208	     -5.58407636	      4.46594756	      0.07794549	      7.13431647	     -7.01223574	     -7.49999987	      1.13827672	     -7.38692540	      1.30167076	      0.73956201	      0.01290779	      5.04282356	     -1.34644383	     -7.49999987	      0.40961092	      0.67725958	     -1.79826024	     35.84820720	      0.17599641	     60.22844126	    129.09931069	     92.50097502	     36.17051809	      0.93487324	     59.76809109	    133.47706223	     91.96058203
      7.43333330	     -4.82704126	     -0.16470882	     -1.48477451	      0.73462796	      0.97854180	     -0.20675333	      4.06738138	     -4.82206997	     -5.46174961	      4.56006852	      0.07958821	      7.22370747	     -7.04998470	     -7.49999987	      1.05061964	     -7.44141988	      1.28778457	      0.80553737	      0.01405928	      4.99951754	     -1.39327993	     -7.49999987	      0.22265482	      0.79605289	     -1.75545311	     35.59588411	      0.09673717	     60.43209741	    129.03565898	     92.59886297	     35.98714613	      0.93955010	     60.06347503	    132.87747408	     92.42587076
      7.45000000	     -4.75149305	     -0.18406755	     -1.57000661	      0.73468665	      0.97508256	     -0.20653697	      4.05647374	     -4.78078278	     -5.31610815	      4.65239771	      0.08119966	      7.28890197	     -7.07176113	     -7.49999987	      1.02421783	     -7.49116796	      1.24728851	      0.90076525	      0.01572132	      4.93087870	     -1.52319001	     -7.49999987	      0.20982300	      0.88769571	     -1.64832897	     35.59640597	      0.07900698	     60.22274655	    129.11652647	     92.50155127	     36.01923862	      0.98302792	     60.20865617	    132.74755067	     92.33527421
      7.46666670	     -4.64574511	     -0.14356975	     -1.58184446	      0.74035746	      0.97532542	     -0.20981974	      3.94913568	     -4.85605294	     -5.26707312	      4.70863762	      0.08218123	      7.30599250	     -7.06440617	     -7.49999987	      0.90094160	     -7.43457618	      1.23346488	      0.95823314	      0.01672432	      4.90695470	     -1.52463301	     -7.49999987	      0.37407423	      1.00100268	     -1.71701496	     35.51283511	      0.02668998	     60.24206489	    129.16436974	     92.50352817	     35.97818180	      1.05299697	     60.20108508	    132.77362515	     92.33413879
      7.48333330	     -4.64668703	     -0.13644416	     -1.57152972	      0.73469070	      0.97535373	     -0.20656597	      3.94639692	     -4.85394472	     -5.26334806	      4.70642807	      0.08214267	      7.30873159	     -7.06305736	     -7.49999987	      0.91294616	     -7.44796549	      1.23443239	      0.95412307	      0.01665259	      4.90651278	     -1.52496737	     -7.49999987	      0.38049890	      1.01073660	     -1.72002856	     35.50855773	      0.02299487	     60.24287544	    129.16628622	     92.50347865	     35.97585544	      1.05636816	     60.19693642	    132.77207461	     92.33379615
      7.50000000	     -4.44002499	     -0.21623745	     -1.66997206	      0.73436547	      0.97180013	     -0.20619647	      3.88510261	     -4.75387632	     -4.90335502	      4.95659018	      0.08650882	      7.66250700	     -7.09661034	     -7.49999987	      0.84959324	     -7.56309254	      1.22607024	      1.24933478	      0.02180501	      4.91390816	     -1.72657551	     -7.49999987	      0.19775375	      1.14183061	     -1.59757285	     35.83838951	      0.23644481	     59.80557250	    129.13806541	     91.67573432	     36.00728792	      1.09193256	     58.66168978	    132.85423232	     91.99181029
      7.51666670	     -4.34972899	     -0.24866564	     -1.73755678	      0.73468117	      0.97579112	     -0.20651146	      3.89403120	     -4.71399272	     -4.71800103	      5.12427429	      0.08943546	      7.78285740	     -7.12615163	     -7.49999987	      0.87612243	     -7.62017899	      1.26024442	      1.47961734	      0.02582419	      4.92100842	     -1.88885951	     -7.49999987	      0.07768260	      1.25502464	     -1.47477549	     35.88749668	      0.18908575	     59.82267941	    128.93492788	     91.38972508	     35.97059145	      1.09098577	     58.83525718	    133.05066116	     92.10203310
      7.53333330	     -4.21885232	     -0.21298563	     -1.78517966	      0.74055915	      0.97245254	     -0.20947259	      3.76922935	     -4.77058223	     -4.63748305	      5.20644567	      0.09086962	      7.79773583	     -7.10568293	     -7.49999987	      0.75319288	     -7.57480153	      1.24759458	      1.58656354	      0.02769076	      4.89608800	     -1.89819391	     -7.49999987	      0.27492075	      1.36494714	     -1.55908006	     35.79437158	      0.19872028	     59.85159712	    129.07719953	     91.39237626	     35.93277381	      1.15964826	     58.81326572	    133.08186989	     92.09944855
      7.55000000	     -4.14566188	     -0.23559027	     -1.84798799	      0.74071892	      0.97273440	     -0.20935190	      3.73777095	     -4.76271264	     -4.44915396	      5.35613612	      0.09348221	      8.05238527	     -7.04737245	     -7.49999987	      0.67036343	     -7.59605974	      1.27129677	      1.70887874	      0.02982556	      4.93457307	     -2.04272695	     -7.49999987	      0.34728299	      1.48499747	     -1.60697057	     35.43421170	      0.08030513	     60.08494556	    130.18910192	     91.67469544	     35.41537117	      1.52781713	     58.53307269	    133.86470328	     92.08163641
      7.56666670	     -4.14818321	     -0.23838936	     -1.83771385	      0.73463165	      0.97240037	     -0.20619533	      3.73392374	     -4.76005453	     -4.44720575	      5.35579491	      0.09347626	      8.05308647	     -7.04603551	     -7.49999987	      0.67382325	     -7.60770848	      1.27437562	      1.70781995	      0.02980708	      4.93545386	     -2.04271587	     -7.49999987	      0.36519034	      1.48868266	     -1.60632641	     35.43721179	      0.08221058	     60.08441590	    130.18671194	     91.67464347	     35.41641846	      1.53642565	     58.53729677	    133.87113778	     92.08183234
